<svg xmlns="http://www.w3.org/2000/svg" version="1.1" xmlns:xlink="http://www.w3.org/1999/xlink" xmlns:svgjs="http://svgjs.dev/svgjs" width="1000" height="1000" viewBox="0 0 1000 1000"><rect width="1000" height="1000" fill="#ffffff"></rect><g transform="matrix(0.7,0,0,0.7,149.57575757575756,318.7614177175341)"><svg viewBox="0 0 396 205" data-background-color="#ffffff" preserveAspectRatio="xMidYMid meet" height="517" width="1000" xmlns="http://www.w3.org/2000/svg" xmlns:xlink="http://www.w3.org/1999/xlink"><g id="tight-bounds" transform="matrix(1,0,0,1,0.2400000000000091,0.1634688792306065)"><svg viewBox="0 0 395.52 204.67306229538804" height="204.67306229538804" width="395.52"><g><svg viewBox="0 0 397.4975999999999 205.69642760686494" height="204.67306229538804" width="395.52"><g><rect width="397.4975999999999" height="4.513083312101223" x="0" y="108.78316481939866" fill="#0080ff" opacity="1" stroke-width="0" stroke="transparent" fill-opacity="1" class="rect-o-0" data-fill-palette-color="primary" rx="1%" id="o-0" data-palette-color="#0080ff"></rect></g><g><rect width="397.4975999999999" height="4.513083312101223" x="0" y="119.20342524158002" fill="#0080ff" opacity="1" stroke-width="0" stroke="transparent" fill-opacity="1" class="rect-o-1" data-fill-palette-color="primary" rx="1%" id="o-1" data-palette-color="#0080ff"></rect></g><g transform="matrix(1,0,0,1,0.9887999999999693,135.53086277384153)"><svg viewBox="0 0 395.52 70.16556483302344" height="70.16556483302344" width="395.52"><g id="textblocktransform"><svg viewBox="0 0 395.52 70.16556483302344" height="70.16556483302344" width="395.52" id="textblock"><g><svg viewBox="0 0 395.52 50.04470687473639" height="50.04470687473639" width="395.52"><g transform="matrix(1,0,0,1,0,0)"><svg width="395.52" viewBox="0.9500000476837158 -42.189998626708984 347.29998779296875 43.94999694824219" height="50.04470687473639" data-palette-color="#0080ff"><path d="M18.6-24.61L18.6-24.61 15.65-24.61Q13.77-24.61 12.94-25.57 12.11-26.54 12.11-28.13L12.11-28.13Q12.11-31.64 17.36-31.64L17.36-31.64Q22.29-31.64 24.78-30.18L24.78-30.18 23.36-29.1Q21.66-29.88 17.36-29.88L17.36-29.88Q15.26-29.88 14.54-29.42 13.82-28.96 13.82-28.13 13.82-27.29 14.21-26.83 14.6-26.37 15.65-26.37L15.65-26.37 18.68-26.37Q21.97-26.37 24.62-25.24 27.27-24.12 28.98-22.18 30.69-20.24 31.59-17.71 32.5-15.19 32.5-12.3L32.5-12.3Q32.5-9.96 31.84-7.86 31.18-5.76 29.85-4 28.52-2.25 26.65-0.96 24.78 0.32 22.2 1.04 19.63 1.76 16.63 1.76L16.63 1.76Q11.91 1.76 7.8 0.33 3.69-1.1 0.95-3.66L0.95-3.66 2.37-4.71Q4.86-2.47 8.61-1.23 12.35 0 16.63 0L16.63 0Q19.97 0 22.67-0.96 25.37-1.93 27.11-3.61 28.86-5.3 29.8-7.52 30.74-9.74 30.74-12.3L30.74-12.3Q30.74-15.7 29.37-18.44 28-21.19 25.21-22.9 22.41-24.61 18.6-24.61ZM15.65-22.85L15.65-22.85 18.43-22.85Q23.39-22.85 26.18-19.82 28.98-16.8 28.98-12.3L28.98-12.3Q28.98-7.74 25.73-4.75 22.49-1.76 16.63-1.76L16.63-1.76Q12.72-1.76 9.33-2.83 5.93-3.91 3.69-5.86L3.69-5.86 5.05-6.96Q7.06-5.32 10.1-4.42 13.13-3.52 16.63-3.52L16.63-3.52Q21.78-3.52 24.5-5.98 27.22-8.45 27.22-12.3L27.22-12.3Q27.22-16.11 24.94-18.6 22.66-21.09 18.41-21.09L18.41-21.09 15.65-21.09Q12.08-21.09 10.3-23.05 8.52-25 8.52-28.13 8.52-31.25 10.73-33.2 12.94-35.16 17.36-35.16L17.36-35.16Q20.46-35.16 23.12-34.44 25.78-33.72 27.51-32.37L27.51-32.37 26.12-31.3Q23.07-33.4 17.36-33.4L17.36-33.4Q13.67-33.4 11.98-31.95 10.28-30.49 10.28-28.13L10.28-28.13Q10.28-25.73 11.54-24.29 12.79-22.85 15.65-22.85ZM15.65-19.34L15.65-19.34 18.33-19.34Q21.9-19.34 23.68-17.36 25.46-15.38 25.46-12.3L25.46-12.3Q25.46-9.18 23.25-7.23 21.04-5.27 16.63-5.27L16.63-5.27Q13.53-5.27 10.85-5.99 8.18-6.71 6.45-8.06L6.45-8.06 7.84-9.13Q10.89-7.03 16.63-7.03L16.63-7.03Q20.31-7.03 22.01-8.48 23.71-9.94 23.71-12.3 23.71-14.67 22.44-16.13 21.17-17.58 18.31-17.58L18.31-17.58 15.65-17.58Q10.64-17.58 7.82-20.57 5-23.56 5-28.13 5-32.69 8.25-35.68 11.5-38.67 17.36-38.67L17.36-38.67Q21.26-38.67 24.65-37.6 28.03-36.52 30.27-34.57L30.27-34.57 28.91-33.47Q26.9-35.11 23.88-36.01 20.85-36.91 17.36-36.91L17.36-36.91Q12.21-36.91 9.48-34.45 6.76-31.98 6.76-28.13L6.76-28.13Q6.76-24.29 9.06-21.81 11.35-19.34 15.65-19.34ZM15.65-15.82L15.65-15.82 18.33-15.82Q20.21-15.82 21.04-14.84 21.88-13.87 21.88-12.3L21.88-12.3Q21.88-8.79 16.63-8.79L16.63-8.79Q11.67-8.79 9.18-10.25L9.18-10.25 10.6-11.33Q12.3-10.55 16.63-10.55L16.63-10.55Q18.73-10.55 19.45-11.01 20.17-11.47 20.17-12.3L20.17-12.3Q20.17-13.11 19.76-13.59 19.36-14.06 18.29-14.06L18.29-14.06 15.65-14.06Q12.28-14.06 9.56-15.16 6.84-16.26 5.09-18.19 3.34-20.12 2.42-22.66 1.49-25.2 1.49-28.13L1.49-28.13Q1.49-30.47 2.15-32.57 2.81-34.67 4.14-36.43 5.47-38.18 7.34-39.47 9.2-40.75 11.78-41.47 14.36-42.19 17.36-42.19L17.36-42.19Q22.07-42.19 26.17-40.76 30.27-39.33 33.01-36.77L33.01-36.77 31.59-35.72Q29.1-37.96 25.37-39.2 21.63-40.43 17.36-40.43L17.36-40.43Q14.01-40.43 11.32-39.47 8.62-38.5 6.87-36.82 5.13-35.13 4.19-32.91 3.25-30.69 3.25-28.13L3.25-28.13Q3.25-24.68 4.64-21.92 6.03-19.17 8.89-17.49 11.74-15.82 15.65-15.82ZM61.25-11.87L53.83-11.87 54.54-13.62 60.54-13.62 61.25-11.87ZM62.67-8.35L52.46-8.35 53.15-10.11 61.91-10.11 62.67-8.35ZM64.04-4.83L51.1-4.83 51.78-6.59 63.3-6.59 64.04-4.83ZM51.85-38.06L36.81 0 34.91 0 50.9-40.43 52.81-40.43 68.77 0 66.89 0 51.85-38.06ZM38.69 0L52.07-33.89 53.07-31.64 40.57 0 38.69 0ZM42.48 0L54.03-29.25 54.95-26.83 44.38 0 42.48 0ZM46.26 0L55.88-24.41 56.81-21.95 48.14 0 46.26 0ZM64.13-40.43L80.12 0 78.22 0 62.25-40.43 64.13-40.43ZM58.47-40.43L60.35-40.43 76.34 0 74.46 0 58.47-40.43ZM54.69-40.43L56.56-40.43 72.56 0 70.65 0 54.69-40.43ZM95.89 0L79.9-40.43 81.81-40.43 96.85-2.37 111.88-40.43 113.76-40.43 97.8 0 95.89 0ZM85.57-40.43L98.07-8.79 97.07-6.54 83.69-40.43 85.57-40.43ZM89.37-40.43L99.95-13.6 99.02-11.18 87.47-40.43 89.37-40.43ZM93.13-40.43L101.8-18.48 100.87-16.02 91.25-40.43 93.13-40.43ZM107.25 0L123.21-40.43 125.12-40.43 109.13 0 107.25 0ZM103.46 0L119.45-40.43 121.33-40.43 105.34 0 103.46 0ZM99.68 0L115.64-40.43 117.55-40.43 101.56 0 99.68 0ZM151.26-11.87L143.84-11.87 144.55-13.62 150.55-13.62 151.26-11.87ZM152.68-8.35L142.47-8.35 143.16-10.11 151.92-10.11 152.68-8.35ZM154.05-4.83L141.11-4.83 141.79-6.59 153.31-6.59 154.05-4.83ZM141.86-38.06L126.82 0 124.92 0 140.91-40.43 142.81-40.43 158.78 0 156.9 0 141.86-38.06ZM128.7 0L142.08-33.89 143.08-31.64 130.58 0 128.7 0ZM132.49 0L144.04-29.25 144.96-26.83 134.39 0 132.49 0ZM136.27 0L145.89-24.41 146.82-21.95 138.15 0 136.27 0ZM154.14-40.43L170.13 0 168.23 0 152.26-40.43 154.14-40.43ZM148.48-40.43L150.36-40.43 166.35 0 164.47 0 148.48-40.43ZM144.69-40.43L146.57-40.43 162.57 0 160.66 0 144.69-40.43ZM201.92-40.43L201.92-19.46 200.16-22.36 200.16-40.43 201.92-40.43ZM205.43-40.43L205.43-13.7 203.68-16.65 203.68-40.43 205.43-40.43ZM208.95-40.43L208.95-7.86 207.19-10.84 207.19-40.43 208.95-40.43ZM183.75 0L183.75-20.97 185.51-18.07 185.51 0 183.75 0ZM180.24 0L180.24-26.73 182-23.78 182 0 180.24 0ZM176.72 0L176.72-32.57 178.48-29.59 178.48 0 176.72 0ZM202.19 0L177.33-40.43 179.38-40.43 204.24 0 202.19 0ZM206.29 0L181.48-40.43 183.56-40.43 208.39 0 206.29 0ZM210.39 0L185.61-40.43 187.66-40.43 210.71-2.86 210.71-40.43 212.47-40.43 212.47 0Q212.47 0 210.39 0L210.39 0ZM198.06 0L174.97-37.57 174.97 0 173.21 0 173.21-40.43Q173.21-40.43 175.31-40.43L175.31-40.43 200.09 0 198.06 0ZM245.81-40.43L245.81-19.46 244.05-22.36 244.05-40.43 245.81-40.43ZM249.33-40.43L249.33-13.7 247.57-16.65 247.57-40.43 249.33-40.43ZM252.84-40.43L252.84-7.86 251.09-10.84 251.09-40.43 252.84-40.43ZM227.65 0L227.65-20.97 229.41-18.07 229.41 0 227.65 0ZM224.13 0L224.13-26.73 225.89-23.78 225.89 0 224.13 0ZM220.62 0L220.62-32.57 222.38-29.59 222.38 0 220.62 0ZM246.08 0L221.23-40.43 223.28-40.43 248.13 0 246.08 0ZM250.18 0L225.38-40.43 227.45-40.43 252.28 0 250.18 0ZM254.28 0L229.5-40.43 231.55-40.43 254.6-2.86 254.6-40.43 256.36-40.43 256.36 0Q256.36 0 254.28 0L254.28 0ZM241.96 0L218.86-37.57 218.86 0 217.1 0 217.1-40.43Q217.1-40.43 219.2-40.43L219.2-40.43 243.98 0 241.96 0ZM285.87-11.87L278.45-11.87 279.16-13.62 285.17-13.62 285.87-11.87ZM287.29-8.35L277.08-8.35 277.77-10.11 286.53-10.11 287.29-8.35ZM288.66-4.83L275.72-4.83 276.4-6.59 287.92-6.59 288.66-4.83ZM276.47-38.06L261.44 0 259.53 0 275.52-40.43 277.43-40.43 293.39 0 291.51 0 276.47-38.06ZM263.32 0L276.69-33.89 277.69-31.64 265.19 0 263.32 0ZM267.1 0L278.65-29.25 279.57-26.83 269 0 267.1 0ZM270.88 0L280.5-24.41 281.43-21.95 272.76 0 270.88 0ZM288.75-40.43L304.75 0 302.84 0 286.87-40.43 288.75-40.43ZM283.09-40.43L284.97-40.43 300.96 0 299.08 0 283.09-40.43ZM279.31-40.43L281.19-40.43 297.18 0 295.27 0 279.31-40.43ZM346.49 0L346.49-40.43 348.25-40.43 348.25 0 346.49 0ZM307.82 0L307.82-40.43 309.58-40.43 309.58 0 307.82 0ZM342.98 0L342.98-40.43 344.73-40.43 344.73 0 342.98 0ZM339.46 0L339.46-40.43 341.22-40.43 341.22 0 339.46 0ZM335.94-24.63L335.94-40.43 337.7-40.43 337.7 0 335.94 0 335.94-15.84 320.12-15.84 320.12 0 318.37 0 318.37-40.43 320.12-40.43 320.12-24.63 335.94-24.63ZM314.85 0L314.85-40.43 316.61-40.43 316.61 0 314.85 0ZM311.34 0L311.34-40.43 313.09-40.43 313.09 0 311.34 0ZM320.12-17.6L335.94-17.6 335.94-19.36 320.12-19.36 320.12-17.6ZM320.12-21.12L335.94-21.12 335.94-22.88 320.12-22.88 320.12-21.12Z" opacity="1" transform="matrix(1,0,0,1,0,0)" fill="#0080ff" class="undefined-text-0" data-fill-palette-color="primary" id="text-0"></path></svg></g></svg></g><g transform="matrix(1,0,0,1,75.54432,61.85906109489666)"><svg viewBox="0 0 244.43135999999998 8.306503738126773" height="8.306503738126773" width="244.43135999999998"><g transform="matrix(1,0,0,1,0,0)"><svg width="244.43135999999998" viewBox="0.9800000190734863 -37.9900016784668 1290.1800537109375 43.85000228881836" height="8.306503738126773" data-palette-color="#0080ff"><path d="M17.77 1.46L17.77 1.46Q14.89 1.34 12.6 0.96 10.3 0.59 8.17-0.26 6.03-1.1 4.58-2.38 3.13-3.66 2.16-5.66 1.2-7.67 0.98-10.3L0.98-10.3Q0.98-10.77 1.46-10.84L1.46-10.84Q1.61-10.79 1.95-10.79L1.95-10.79Q3.98-10.79 8.11-10.89 12.23-10.99 14.26-10.99L14.26-10.99Q14.77-10.99 15.06-10.66 15.36-10.33 15.54-9.85 15.72-9.38 15.98-8.9 16.24-8.42 16.86-8.09 17.48-7.76 18.46-7.76L18.46-7.76Q19.65-7.76 20.57-8.44 21.48-9.11 21.48-10.25L21.48-10.25Q21.48-11.01 20.7-11.65 19.92-12.28 18.64-12.68 17.36-13.09 16.2-13.37 15.04-13.65 13.82-13.85 12.6-14.06 12.4-14.11L12.4-14.11Q6.47-15.72 3.87-18.12 1.27-20.51 1.27-24.66L1.27-24.66Q1.27-27.59 2.34-29.92 3.42-32.25 5.15-33.73 6.88-35.21 9.25-36.19 11.62-37.18 14.04-37.59 16.46-37.99 19.04-37.99L19.04-37.99Q25.9-37.99 29.98-35.45L29.98-35.45Q31.47-33.96 32.17-33.19 32.86-32.42 33.51-31.4 34.16-30.37 34.41-29.38 34.67-28.39 34.77-26.95L34.77-26.95 33.89-26.07Q28.88-25.88 22.66-25.88L22.66-25.88Q21.88-25.88 21.4-26.05 20.92-26.22 20.76-26.49 20.61-26.76 20.45-27.05 20.29-27.34 20.15-27.61 20.02-27.88 19.59-28.05 19.17-28.22 18.46-28.22L18.46-28.22Q18.26-28.22 17.83-28.15 17.41-28.08 16.83-27.92 16.26-27.76 15.84-27.43 15.43-27.1 15.43-26.66L15.43-26.66Q15.43-26.12 15.98-25.68 16.53-25.24 17.14-25.05 17.75-24.85 18.65-24.62 19.56-24.39 19.78-24.32L19.78-24.32Q25.1-22.97 26.12-22.66L26.12-22.66Q31.47-20.97 33.69-18.24L33.69-18.24Q35.74-15.7 35.74-11.87L35.74-11.87Q35.74-9.55 35.14-7.64 34.55-5.74 33.57-4.42 32.59-3.1 31.13-2.08 29.66-1.05 28.16-0.44 26.66 0.17 24.76 0.59 22.85 1 21.25 1.18 19.65 1.37 17.77 1.46ZM35.94-24.71L35.94-24.71 35.94-33.5 64.35-33.5Q64.74-33.42 64.84-33.19 64.94-32.96 64.94-32.52L64.94-32.52 64.94-24.71Q64.89-24.12 64.26-24.12L64.26-24.12 57.32-24.12 57.32-1.66Q57.32-1.64 57.3-1.54 57.27-1.44 57.27-1.42 57.27-1.39 57.25-1.32 57.22-1.25 57.2-1.22 57.18-1.2 57.15-1.14 57.13-1.07 57.09-1.06 57.05-1.05 56.99-1.01 56.93-0.98 56.87-0.95 56.81-0.93 56.72-0.92 56.64-0.9 56.54-0.88L56.54-0.88 54.98-0.88Q51.85-0.88 51.85-1.07L51.85-1.07Q51.66-1.07 51.27-1.05 50.88-1.03 50.68-1.03L50.68-1.03 48.73-1.03Q48.17-1.03 47.13-1 46.09-0.98 45.51-0.98L45.51-0.98 44.14-0.98 43.16-1.66 43.16-6.93Q43.19-8.35 43.37-12.99 43.55-17.63 43.55-20.31L43.55-20.31 43.55-20.95Q43.55-21.14 43.58-21.56 43.6-21.97 43.6-22.17L43.6-22.17Q43.6-22.39 43.58-23.06 43.55-23.73 43.55-23.93L43.55-23.93 37.45-23.93Q36.91-23.93 36.42-24.11 35.94-24.29 35.94-24.71ZM66.99-0.98L66.99-33.59 71.53-33.59Q73.63-33.59 78.24-33.69 82.86-33.79 85.15-33.79L85.15-33.79Q87.13-33.79 88.85-33.57 90.57-33.35 92.24-32.76 93.92-32.18 95.1-31.27 96.28-30.37 97.02-28.89 97.75-27.42 97.75-25.49L97.75-25.49Q97.75-22.83 96.5-20.95 95.26-19.07 92.67-17.77L92.67-17.77Q93.7-17.33 94.45-16.63 95.21-15.92 95.61-15.41 96.02-14.89 96.39-13.68 96.77-12.48 96.85-12.1 96.92-11.72 97.16-10.23L97.16-10.23Q97.24-9.89 97.26-9.72L97.26-9.72Q97.36-8.74 98.09-6.14 98.82-3.54 98.82-2.15L98.82-2.15Q98.82-1.27 98.29-1.27L98.29-1.27Q96.82-1.27 93.85-1.25 90.89-1.22 89.45-1.22L89.45-1.22Q88.86-1.27 87.69-1.27L87.69-1.27 86.03-1.27Q85.54-1.42 85.08-2.78 84.61-4.15 84.42-5.86L84.42-5.86 83.88-10.21Q83.74-10.74 83.65-10.97 83.56-11.21 83.34-11.54 83.12-11.87 82.75-11.99 82.37-12.11 81.78-12.11L81.78-12.11 80.66-12.11 80.66-2.34Q80.66-2.27 80.66-2.11 80.66-1.95 80.66-1.89 80.66-1.83 80.66-1.71 80.66-1.59 80.63-1.53 80.61-1.46 80.59-1.37 80.56-1.27 80.52-1.23 80.49-1.2 80.43-1.14 80.37-1.07 80.28-1.05 80.2-1.03 80.09-1 79.98-0.98 79.83-0.98L79.83-0.98 66.99-0.98ZM80.81-20.7L80.81-20.7Q80.85-20.65 80.95-20.5 81.05-20.34 81.15-20.24 81.25-20.14 81.34-20.12L81.34-20.12Q82.08-20.12 82.81-20.28 83.54-20.43 84.31-20.8 85.08-21.17 85.55-21.92 86.03-22.68 86.03-23.73L86.03-23.73Q86.03-26.27 81.15-26.27L81.15-26.27Q80.66-26.15 80.66-25.88L80.66-25.88 80.66-24.95Q80.66-24.24 80.73-22.83 80.81-21.41 80.81-20.7ZM101.02-1.81L101.02-31.54Q101.02-33.01 101.14-33.25L101.14-33.25Q101.36-33.59 101.85-33.59L101.85-33.59 102.43-33.59Q102.82-33.59 102.97-33.54L102.97-33.54 104.24-33.54Q106.71-33.54 111.7-33.67 116.69-33.79 119.18-33.79L119.18-33.79 125.68-33.79Q126.31-33.72 126.31-33.15L126.31-33.15 126.31-25Q126.29-24.85 126.23-24.74 126.16-24.63 126.13-24.6 126.09-24.56 125.9-24.43 125.7-24.29 125.63-24.22L125.63-24.22 114.3-24.22 114.3-21.19 115.37-21.19Q116.79-21.19 119.69-21.29 122.6-21.39 124.16-21.39L124.16-21.39Q124.85-21.39 125.09-21.12 125.33-20.85 125.33-20.36L125.33-20.36Q125.33-20.24 125.29-19.95 125.24-19.65 125.24-19.53L125.24-19.53 125.24-18.6Q125.24-18.51 125.26-18.2 125.29-17.9 125.29-17.68L125.29-17.68 125.29-16.99Q125.29-16.46 125.33-15.92 125.38-15.38 125.38-14.99L125.38-14.99 125.38-14.36Q125.26-14.06 125.19-13.96 125.11-13.87 124.94-13.87L124.94-13.87 124.94-13.92Q124.04-13.92 121.83-13.79 119.62-13.67 118.3-13.67L118.3-13.67 114.4-13.67 114.4-10.55Q114.59-10.55 114.98-10.52 115.37-10.5 115.57-10.5L115.57-10.5Q116.67-10.5 118.82-10.57 120.96-10.64 121.92-10.64L121.92-10.64 125.04-10.64Q126.31-10.64 126.65-10.35L126.65-10.35Q126.77-10.21 126.85-10.06L126.85-10.06 126.85-2.25Q126.85-1.73 126.65-1.46 126.46-1.2 125.92-1.17L125.92-1.17 101.75-1.17 101.02-1.81ZM148.43-6.05L140.91-6.05Q140.74-5.49 140.58-4.58 140.42-3.66 140.29-3.14 140.15-2.61 139.83-2.04 139.52-1.46 138.87-1.2 138.22-0.93 137.2-0.93L137.2-0.93 126.65-0.93 126.65-1.76Q127.94-5.64 130.42-13.67 132.9-21.7 134.27-25.83L134.27-25.83 134.27-25.78Q135.1-28.15 136.71-33.2L136.71-33.2Q136.73-33.25 136.78-33.33L136.78-33.33Q137-33.69 137.2-33.89L137.2-33.89 150.38-33.79Q153.75-33.79 154.09-33.2L154.09-33.2 154.09-32.57Q154.14-32.35 154.63-31.45L154.63-31.45Q157-24.19 158.1-20.9L158.1-20.9 158.1-20.61Q158.19-19.9 158.53-18.99 158.88-18.09 159.35-17.05 159.83-16.02 160.02-15.43L160.02-15.43 161-11.91Q161.86-9.08 163.52-4.35L163.52-4.35 163.52-4.39 163.52-3.91Q163.59-3.56 163.88-2.98 164.17-2.39 164.25-2.15L164.25-2.15Q164.25-1.46 163.97-1.27 163.69-1.07 162.88-1.07L162.88-1.07 151.55-1.07Q151.14-1.12 151.02-1.15 150.89-1.17 150.64-1.25 150.38-1.32 150.27-1.44 150.16-1.56 150.14-1.76L150.14-1.76 149.21-5.47Q149.11-5.93 149.01-5.99 148.92-6.05 148.43-6.05L148.43-6.05ZM142.08-14.65L142.08-14.75 142.08-14.65ZM147.45-17.68L147.45-17.68Q147.3-18.36 147.02-19.89 146.74-21.41 146.47-22.55 146.21-23.68 145.89-24.66L145.89-24.66 145.89-25.83Q145.69-26.34 145.2-26.56L145.2-26.56 145.2-26.51Q144.62-26.39 144.03-23.24L144.03-23.24 144.03-22.07Q143.98-21.9 143.81-21.75 143.64-21.61 143.64-21.58L143.64-21.58Q142.84-18.02 142.32-15.82L142.32-15.82Q142.32-15.58 142.2-14.97 142.08-14.36 142.08-14.26L142.08-14.26 148.13-14.26Q148.13-14.89 147.7-16.55L147.7-16.55 147.7-17.09Q147.67-17.16 147.56-17.37 147.45-17.58 147.45-17.68ZM181.14-33.5L183.63-33.5Q183.8-33.54 184.18-33.58 184.56-33.62 184.66-33.64L184.66-33.64 187.56-18.77 191.37-33.69 208.53-33.69Q209.22-33.69 209.22-30.81L209.22-30.81 209.22-2.05Q209.17-1.66 209-1.42 208.83-1.17 208.5-1.09 208.17-1 207.98-0.99 207.8-0.98 207.36-0.98L207.36-0.98Q205.82-0.98 202.69-0.93 199.55-0.88 197.99-0.88L197.99-0.88Q196.76-1.64 196.76-6.49L196.76-6.49Q196.76-7.71 196.81-9.68 196.86-11.65 196.86-12.6L196.86-12.6 196.86-14.75Q196.86-14.92 196.84-15.3 196.81-15.67 196.81-15.87L196.81-15.87Q196.81-16.7 196.91-18.55L196.91-18.55 196.91-16.7Q196.57-15.26 195.59-12.3 194.62-9.35 194.27-7.91L194.27-7.91 192.81-1.66Q192.42-0.98 190.37-0.98L190.37-0.98Q189.37-0.98 187.77-1.03 186.17-1.07 185.34-1.07L185.34-1.07Q185.09-1.07 184.51-1.05 183.92-1.03 183.78-1.03L183.78-1.03Q183-1.03 182.65-1.22 182.31-1.42 182.17-2L182.17-2Q179.87-12.18 178.99-16.41L178.99-16.41 178.11-20.61Q177.77-13.5 177.77-5.57L177.77-5.57 177.77-1.27 166.25-1.27Q166.25-1.42 166.32-1.9 166.39-2.39 166.39-2.44L166.39-2.44Q166.2-7.13 166.2-14.01L166.2-14.01Q166.2-16.09 166.17-19.54 166.15-23 166.15-24.32L166.15-24.32 166.15-32.96Q166.15-33.28 166.25-33.44 166.34-33.59 166.74-33.89L166.74-33.89 168.98-33.89Q170.2-33.89 170.74-33.94L170.74-33.94Q173.21-33.94 176.73-33.72 180.26-33.5 181.14-33.5L181.14-33.5ZM196.91-18.75L196.91-18.7 196.91-18.75ZM226.5-24.71L226.5-24.71 226.5-33.5 254.91-33.5Q255.3-33.42 255.4-33.19 255.5-32.96 255.5-32.52L255.5-32.52 255.5-24.71Q255.45-24.12 254.82-24.12L254.82-24.12 247.88-24.12 247.88-1.66Q247.88-1.64 247.86-1.54 247.83-1.44 247.83-1.42 247.83-1.39 247.81-1.32 247.79-1.25 247.76-1.22 247.74-1.2 247.71-1.14 247.69-1.07 247.65-1.06 247.61-1.05 247.55-1.01 247.49-0.98 247.43-0.95 247.37-0.93 247.28-0.92 247.2-0.9 247.1-0.88L247.1-0.88 245.54-0.88Q242.41-0.88 242.41-1.07L242.41-1.07Q242.22-1.07 241.83-1.05 241.44-1.03 241.24-1.03L241.24-1.03 239.29-1.03Q238.73-1.03 237.69-1 236.65-0.98 236.07-0.98L236.07-0.98 234.7-0.98 233.72-1.66 233.72-6.93Q233.75-8.35 233.93-12.99 234.11-17.63 234.11-20.31L234.11-20.31 234.11-20.95Q234.11-21.14 234.14-21.56 234.16-21.97 234.16-22.17L234.16-22.17Q234.16-22.39 234.14-23.06 234.11-23.73 234.11-23.93L234.11-23.93 228.01-23.93Q227.47-23.93 226.98-24.11 226.5-24.29 226.5-24.71ZM288.99-32.57L288.99-32.57 288.99-2.54Q288.99-2.03 288.96-1.72 288.92-1.42 288.75-1.15 288.58-0.88 288.26-0.88L288.26-0.88 275.81-0.88 275.81-1.42Q275.76-1.46 275.43-1.64 275.1-1.81 275.03-1.95L275.03-1.95 275.03-11.82Q275.03-12.35 274.94-12.43 274.86-12.5 274.25-12.5L274.25-12.5 272.59-12.5Q272-12.5 271.22-12.4L271.22-12.4 271.22-1.86Q271.12-1.42 270.84-1.29 270.56-1.17 270-1.17L270-1.17 268.88-1.17Q267.73-1.17 265.28-1.12 262.82-1.07 261.55-1.07L261.55-1.07 258.33-1.07Q257.28-1.07 257.28-2.25L257.28-2.25 257.43-33.01Q257.43-33.13 257.5-33.22 257.57-33.3 257.79-33.46 258.01-33.62 258.04-33.64L258.04-33.64 271.17-33.64 271.17-23.14 275.42-23.14 275.42-33.89 287.87-33.89Q288.46-33.89 288.73-33.62 288.99-33.35 288.99-32.57ZM293.58-1.81L293.58-31.54Q293.58-33.01 293.7-33.25L293.7-33.25Q293.92-33.59 294.41-33.59L294.41-33.59 295-33.59Q295.39-33.59 295.53-33.54L295.53-33.54 296.8-33.54Q299.27-33.54 304.26-33.67 309.25-33.79 311.75-33.79L311.75-33.79 318.24-33.79Q318.87-33.72 318.87-33.15L318.87-33.15 318.87-25Q318.85-24.85 318.79-24.74 318.73-24.63 318.69-24.6 318.65-24.56 318.46-24.43 318.26-24.29 318.19-24.22L318.19-24.22 306.86-24.22 306.86-21.19 307.94-21.19Q309.35-21.19 312.26-21.29 315.16-21.39 316.73-21.39L316.73-21.39Q317.41-21.39 317.65-21.12 317.9-20.85 317.9-20.36L317.9-20.36Q317.9-20.24 317.85-19.95 317.8-19.65 317.8-19.53L317.8-19.53 317.8-18.6Q317.8-18.51 317.82-18.2 317.85-17.9 317.85-17.68L317.85-17.68 317.85-16.99Q317.85-16.46 317.9-15.92 317.95-15.38 317.95-14.99L317.95-14.99 317.95-14.36Q317.82-14.06 317.75-13.96 317.68-13.87 317.51-13.87L317.51-13.87 317.51-13.92Q316.6-13.92 314.39-13.79 312.18-13.67 310.87-13.67L310.87-13.67 306.96-13.67 306.96-10.55Q307.16-10.55 307.55-10.52 307.94-10.5 308.13-10.5L308.13-10.5Q309.23-10.5 311.38-10.57 313.53-10.64 314.48-10.64L314.48-10.64 317.6-10.64Q318.87-10.64 319.22-10.35L319.22-10.35Q319.34-10.21 319.41-10.06L319.41-10.06 319.41-2.25Q319.41-1.73 319.22-1.46 319.02-1.2 318.48-1.17L318.48-1.17 294.31-1.17 293.58-1.81ZM386.5-9.13L386.5-9.13Q386.5-8.69 386.54-7.78 386.59-6.86 386.62-6.03 386.64-5.2 386.65-4.19 386.67-3.17 386.58-2.36 386.5-1.54 386.33-0.82 386.15-0.1 385.8 0.29 385.45 0.68 384.93 0.68L384.93 0.68 373.8 0.68Q372.63-0.22 372.63-6.05L372.63-6.05Q372.63-8.18 372.65-11.17 372.68-14.16 372.68-15.43L372.68-15.43 372.68-17.14Q372.68-17.36 372.64-17.98 372.6-18.6 372.63-18.95L372.63-18.95Q371.65-15.41 370.24-8.81 368.82-2.22 368.28 0L368.28 0Q368.04 0.68 366.04 0.68L366.04 0.68 357.39 0.68Q355.81 0.68 355.54-0.15L355.54-0.15 353.2-10.35Q352.88-11.91 352.5-13.6 352.12-15.28 351.61-17.43 351.1-19.58 350.85-20.61L350.85-20.61Q350.56-12.79 350.56-8.69L350.56-8.69 350.56-4.39Q350.56-1.51 350.61-0.05L350.61-0.05Q350.46 0.49 350.07 0.49L350.07 0.49 347.78 0.49Q346.33 0.49 343.55 0.51 340.77 0.54 339.33 0.54L339.33 0.54Q338.01 0.54 338.01 0.1L338.01 0.1 338.01-36.13Q338.01-36.35 338.12-36.51 338.23-36.67 338.46-36.76 338.69-36.84 338.91-36.89 339.13-36.94 339.47-36.95 339.82-36.96 340.04-36.98 340.26-36.99 340.6-36.98 340.94-36.96 341.04-36.96L341.04-36.96 343.92-36.96Q350.88-36.96 353.72-36.77 356.56-36.57 358.08-36.57L358.08-36.57Q358.66-33.3 359.93-26.86L359.93-26.86 361.79-17.14 365.7-36.87Q365.7-36.87 365.89-36.82 366.09-36.77 366.18-36.77L366.18-36.77Q368.8-36.77 373.9-36.84 379-36.91 381.61-36.91L381.61-36.91 385.23-36.91Q385.91-36.84 385.91-35.55L385.91-35.55Q386.45-11.89 386.5-9.13ZM389.03-16.21L389.03-17.68 388.98-18.21Q389.45-22.19 389.86-23.75L389.86-23.75Q390.81-27.42 393.28-29.88L393.28-29.88 393.87-30.47Q395.04-31.84 397.43-32.81L397.43-32.81 398.36-32.81Q400.75-33.81 406.22-34.67L406.22-34.67Q407.59-34.67 409.09-34.46 410.59-34.25 412.42-33.78 414.25-33.3 415.95-32.26 417.65-31.23 418.77-29.79L418.77-29.79 418.77-29.1Q422.77-24.1 422.77-17.87L422.77-17.87Q422.77-10.86 419.55-6.45L419.55-6.45 418.57-5.22Q417.45-3.83 415.78-2.83 414.11-1.83 412.23-1.31 410.35-0.78 408.62-0.56 406.9-0.34 405.19-0.34L405.19-0.34Q402.68-0.34 400.4-0.94 398.11-1.54 396.12-2.81 394.14-4.08 392.62-5.93 391.11-7.79 390.17-10.41 389.23-13.04 389.03-16.21L389.03-16.21ZM402.46-18.55L402.46-17.48Q402.46-8.89 405.73-8.89L405.73-8.89Q406.64-8.89 407.31-9.23 407.98-9.57 408.39-10.28 408.81-10.99 409.08-11.72 409.35-12.45 409.45-13.55 409.56-14.65 409.6-15.48 409.64-16.31 409.64-17.48L409.64-17.48 409.64-18.36Q409.64-19.63 409.49-20.8 409.35-21.97 408.99-23.16 408.64-24.34 407.9-25.06 407.17-25.78 406.12-25.78L406.12-25.78Q402.46-25.78 402.46-18.55L402.46-18.55ZM441.57-33.5L444.06-33.5Q444.23-33.54 444.61-33.58 444.99-33.62 445.08-33.64L445.08-33.64 447.99-18.77 451.8-33.69 468.96-33.69Q469.65-33.69 469.65-30.81L469.65-30.81 469.65-2.05Q469.6-1.66 469.43-1.42 469.25-1.17 468.93-1.09 468.6-1 468.41-0.99 468.23-0.98 467.79-0.98L467.79-0.98Q466.25-0.98 463.11-0.93 459.98-0.88 458.41-0.88L458.41-0.88Q457.19-1.64 457.19-6.49L457.19-6.49Q457.19-7.71 457.24-9.68 457.29-11.65 457.29-12.6L457.29-12.6 457.29-14.75Q457.29-14.92 457.27-15.3 457.24-15.67 457.24-15.87L457.24-15.87Q457.24-16.7 457.34-18.55L457.34-18.55 457.34-16.7Q457-15.26 456.02-12.3 455.05-9.35 454.7-7.91L454.7-7.91 453.24-1.66Q452.85-0.98 450.8-0.98L450.8-0.98Q449.8-0.98 448.2-1.03 446.6-1.07 445.77-1.07L445.77-1.07Q445.52-1.07 444.94-1.05 444.35-1.03 444.21-1.03L444.21-1.03Q443.42-1.03 443.08-1.22 442.74-1.42 442.59-2L442.59-2Q440.3-12.18 439.42-16.41L439.42-16.41 438.54-20.61Q438.2-13.5 438.2-5.57L438.2-5.57 438.2-1.27 426.68-1.27Q426.68-1.42 426.75-1.9 426.82-2.39 426.82-2.44L426.82-2.44Q426.63-7.13 426.63-14.01L426.63-14.01Q426.63-16.09 426.6-19.54 426.58-23 426.58-24.32L426.58-24.32 426.58-32.96Q426.58-33.28 426.68-33.44 426.77-33.59 427.16-33.89L427.16-33.89 429.41-33.89Q430.63-33.89 431.17-33.94L431.17-33.94Q433.63-33.94 437.16-33.72 440.69-33.5 441.57-33.5L441.57-33.5ZM457.34-18.75L457.34-18.7 457.34-18.75ZM474.23-1.81L474.23-31.54Q474.23-33.01 474.35-33.25L474.35-33.25Q474.57-33.59 475.06-33.59L475.06-33.59 475.65-33.59Q476.04-33.59 476.19-33.54L476.19-33.54 477.46-33.54Q479.92-33.54 484.91-33.67 489.91-33.79 492.4-33.79L492.4-33.79 498.89-33.79Q499.53-33.72 499.53-33.15L499.53-33.15 499.53-25Q499.5-24.85 499.44-24.74 499.38-24.63 499.34-24.6 499.31-24.56 499.11-24.43 498.92-24.29 498.84-24.22L498.84-24.22 487.51-24.22 487.51-21.19 488.59-21.19Q490-21.19 492.91-21.29 495.81-21.39 497.38-21.39L497.38-21.39Q498.06-21.39 498.3-21.12 498.55-20.85 498.55-20.36L498.55-20.36Q498.55-20.24 498.5-19.95 498.45-19.65 498.45-19.53L498.45-19.53 498.45-18.6Q498.45-18.51 498.48-18.2 498.5-17.9 498.5-17.68L498.5-17.68 498.5-16.99Q498.5-16.46 498.55-15.92 498.6-15.38 498.6-14.99L498.6-14.99 498.6-14.36Q498.48-14.06 498.4-13.96 498.33-13.87 498.16-13.87L498.16-13.87 498.16-13.92Q497.26-13.92 495.05-13.79 492.84-13.67 491.52-13.67L491.52-13.67 487.61-13.67 487.61-10.55Q487.81-10.55 488.2-10.52 488.59-10.5 488.78-10.5L488.78-10.5Q489.88-10.5 492.03-10.57 494.18-10.64 495.13-10.64L495.13-10.64 498.26-10.64Q499.53-10.64 499.87-10.35L499.87-10.35Q499.99-10.21 500.06-10.06L500.06-10.06 500.06-2.25Q500.06-1.73 499.87-1.46 499.67-1.2 499.13-1.17L499.13-1.17 474.97-1.17 474.23-1.81ZM526.87-33.59L535.22-33.59Q535.51-33.5 535.67-32.75 535.83-32.01 535.85-30.88 535.88-29.76 535.85-28.74 535.83-27.71 535.79-26.64 535.75-25.56 535.75-25.29L535.75-25.29Q535.7-24.32 535.7-22.56L535.7-22.56 535.7-19.97Q535.7-18.26 535.75-15.28 535.8-12.3 535.8-10.89L535.8-10.89 535.8-2Q535.7-1.17 534.44-1.17L534.44-1.17 520.76-1.17Q520.32-1.27 519.64-3.22L519.64-3.22Q519.18-4.52 518.09-7.47 517-10.42 516.22-12.66 515.44-14.89 514.81-16.99L514.81-16.99 514.81-17.14 514.81-16.99Q514.73-15.38 514.66-12.19 514.59-9.01 514.51-7.42L514.51-7.42 514.51-2.44Q514.51-1.71 514.34-1.43 514.17-1.15 513.44-0.98L513.44-0.98 503.38-0.98 502.31-2.05Q502.43-6.1 502.5-14.75 502.57-23.39 502.7-27.54L502.7-27.54 502.7-32.81Q502.94-33.69 503.28-33.69L503.28-33.69 503.28-33.59Q504.94-33.59 508.5-33.69 512.05-33.79 513.83-33.79L513.83-33.79 517.93-33.79Q517.96-33.79 518-33.76L518-33.76Q518.44-33.59 518.49-33.37L518.49-33.37 518.52-33.2Q519.4-30.83 520.3-28.3 521.2-25.76 522.45-22.16 523.69-18.55 524.18-17.19L524.18-17.19 524.18-20.8Q524.67-29.39 524.67-33.01L524.67-33.01Q524.67-33.4 525.21-33.5 525.74-33.59 526.87-33.59L526.87-33.59ZM538.14-24.71L538.14-24.71 538.14-33.5 566.56-33.5Q566.95-33.42 567.05-33.19 567.15-32.96 567.15-32.52L567.15-32.52 567.15-24.71Q567.1-24.12 566.46-24.12L566.46-24.12 559.53-24.12 559.53-1.66Q559.53-1.64 559.51-1.54 559.48-1.44 559.48-1.42 559.48-1.39 559.46-1.32 559.43-1.25 559.41-1.22 559.38-1.2 559.36-1.14 559.34-1.07 559.3-1.06 559.26-1.05 559.2-1.01 559.14-0.98 559.08-0.95 559.02-0.93 558.93-0.92 558.85-0.9 558.75-0.88L558.75-0.88 557.19-0.88Q554.06-0.88 554.06-1.07L554.06-1.07Q553.87-1.07 553.48-1.05 553.09-1.03 552.89-1.03L552.89-1.03 550.94-1.03Q550.38-1.03 549.34-1 548.3-0.98 547.71-0.98L547.71-0.98 546.35-0.98 545.37-1.66 545.37-6.93Q545.39-8.35 545.58-12.99 545.76-17.63 545.76-20.31L545.76-20.31 545.76-20.95Q545.76-21.14 545.79-21.56 545.81-21.97 545.81-22.17L545.81-22.17Q545.81-22.39 545.79-23.06 545.76-23.73 545.76-23.93L545.76-23.93 539.66-23.93Q539.12-23.93 538.63-24.11 538.14-24.29 538.14-24.71ZM588.04-24.12L588.04-24.12Q587.38-24.12 586.97-24.32 586.55-24.51 586.31-24.8 586.07-25.1 585.76-25.39 585.46-25.68 584.8-25.88 584.14-26.07 583.11-26.07L583.11-26.07Q582.79-26.07 582.34-26.01 581.89-25.95 581.35-25.68 580.82-25.42 580.82-25L580.82-25Q580.82-24.54 581.27-24.21 581.72-23.88 582.29-23.74 582.87-23.61 583.59-23.43 584.31-23.24 584.6-23.1L584.6-23.1 588.19-22.22Q589.78-21.78 591.05-21.29 592.32-20.8 593.74-19.96 595.17-19.12 596.12-18.09 597.08-17.07 597.71-15.52 598.35-13.96 598.35-12.11L598.35-12.11Q598.35-9.86 597.76-8.11L597.76-8.11 597.76-8.15Q597.25-6.59 596.32-5.36 595.39-4.13 594.12-3.31 592.85-2.49 591.56-1.94 590.27-1.39 588.57-1.06 586.87-0.73 585.54-0.57 584.21-0.42 582.48-0.29L582.48-0.29Q574.79-0.68 572.17-2.73L572.17-2.73 572.17-3.03Q569.95-4.69 568.89-6.64 567.83-8.59 567.63-11.04L567.63-11.04Q567.63-11.62 568.17-11.62L568.17-11.62Q568.32-11.62 568.61-11.6 568.9-11.57 569.05-11.57L569.05-11.57 571.54-11.57Q571.88-11.62 572.52-11.62L572.52-11.62 573.15-11.62Q573.35-11.62 573.49-11.57L573.49-11.57Q574.91-11.62 578.33-11.62L578.33-11.62 579.45-11.62Q579.94-11.62 580.21-11.33 580.48-11.04 580.63-10.61 580.79-10.18 581-9.75 581.21-9.33 581.74-9.03 582.28-8.74 583.16-8.74L583.16-8.74Q584.11-8.74 584.88-9.24 585.65-9.74 585.65-10.69L585.65-10.69Q585.65-11.13 585.24-11.52 584.82-11.91 583.99-12.23 583.16-12.55 582.51-12.74 581.87-12.94 580.77-13.21 579.67-13.48 579.35-13.57L579.35-13.57 577.89-13.57Q572.59-15.14 570.26-17.54 567.93-19.95 567.93-23.63L567.93-23.63Q567.93-26.07 568.84-28.03 569.76-29.98 571.26-31.23 572.76-32.47 574.79-33.31 576.81-34.16 578.91-34.51 581.01-34.86 583.26-34.86L583.26-34.86Q587.24-34.86 590.64-33.53 594.05-32.2 595.81-30.08L595.81-30.08Q596.44-29.44 596.83-28.47 597.22-27.49 597.33-26.92 597.44-26.34 597.61-25L597.61-25 596.93-24.02 592.78-24.02Q592.1-24.02 590.51-24.07 588.92-24.12 588.04-24.12ZM599.64 5.86L598.86 5.03 600.81-4Q601.4-6.74 602.05-8.79 602.71-10.84 603.06-10.84L603.06-10.84 611.75-10.84Q612.26-10.84 612.66-10.83 613.07-10.82 613.5-10.79 613.94-10.77 614.27-10.72 614.6-10.67 614.86-10.61 615.12-10.55 615.25-10.44 615.38-10.33 615.38-10.18L615.38-10.18 610.67 5.27Q610.4 5.86 605.25 5.86L605.25 5.86 599.64 5.86ZM669.29-13.09L669.29-13.09Q668.87-9.42 667.36-6.6 665.84-3.78 663.48-2.01 661.11-0.24 658.09 0.66 655.08 1.56 651.51 1.56L651.51 1.56Q648.19 1.56 645.46 0.84 642.72 0.12 640.84-1.07 638.96-2.27 637.52-3.99 636.08-5.71 635.23-7.53 634.37-9.35 633.85-11.51 633.32-13.67 633.14-15.54 632.96-17.41 632.96-19.43L632.96-19.43 632.96-21.58Q633.2-25.15 634.62-27.99 636.03-30.83 638.06-32.58 640.09-34.33 642.7-35.49 645.31-36.65 647.78-37.1 650.24-37.55 652.68-37.55L652.68-37.55Q656.62-37.55 659.63-36.61 662.65-35.67 664.55-33.96 666.45-32.25 667.53-30.04 668.6-27.83 668.9-25.1L668.9-25.1 668.9-22.75Q668.9-21.97 663.52-21.97L663.52-21.97Q662.25-21.97 660-22.02 657.74-22.07 657.03-22.07L657.03-22.07Q656.91-22.07 656.66-22.05 656.42-22.02 656.3-22.02L656.3-22.02Q655.66-22.02 655.33-22.55 655-23.07 654.89-23.83 654.78-24.58 654.63-25.34 654.47-26.1 653.97-26.62 653.47-27.15 652.59-27.15 651.71-27.15 651.05-26.86 650.39-26.56 650-25.94 649.61-25.32 649.35-24.68 649.1-24.05 648.99-23.03 648.88-22.02 648.84-21.33 648.8-20.63 648.78-19.47 648.75-18.31 648.73-17.77L648.73-17.77Q648.73-17.48 648.68-16.7 648.63-15.92 648.63-15.43L648.63-15.43Q648.63-9.35 651.85-9.18L651.85-9.18Q652.73-9.18 653.29-9.81 653.86-10.45 654.06-11.23 654.27-12.01 654.54-12.88 654.81-13.75 655.13-14.06L655.13-14.06 668.41-14.06Q669.21-13.99 669.29-13.09ZM690.96-6.05L683.44-6.05Q683.27-5.49 683.11-4.58 682.96-3.66 682.82-3.14 682.69-2.61 682.37-2.04 682.05-1.46 681.41-1.2 680.76-0.93 679.73-0.93L679.73-0.93 669.19-0.93 669.19-1.76Q670.48-5.64 672.96-13.67 675.44-21.7 676.8-25.83L676.8-25.83 676.8-25.78Q677.63-28.15 679.24-33.2L679.24-33.2Q679.27-33.25 679.32-33.33L679.32-33.33Q679.54-33.69 679.73-33.89L679.73-33.89 692.92-33.79Q696.29-33.79 696.63-33.2L696.63-33.2 696.63-32.57Q696.68-32.35 697.16-31.45L697.16-31.45Q699.53-24.19 700.63-20.9L700.63-20.9 700.63-20.61Q700.73-19.9 701.07-18.99 701.41-18.09 701.89-17.05 702.36-16.02 702.56-15.43L702.56-15.43 703.54-11.91Q704.39-9.08 706.05-4.35L706.05-4.35 706.05-4.39 706.05-3.91Q706.12-3.56 706.42-2.98 706.71-2.39 706.78-2.15L706.78-2.15Q706.78-1.46 706.5-1.27 706.22-1.07 705.42-1.07L705.42-1.07 694.09-1.07Q693.67-1.12 693.55-1.15 693.43-1.17 693.17-1.25 692.92-1.32 692.81-1.44 692.7-1.56 692.67-1.76L692.67-1.76 691.74-5.47Q691.65-5.93 691.55-5.99 691.45-6.05 690.96-6.05L690.96-6.05ZM684.62-14.65L684.62-14.75 684.62-14.65ZM689.99-17.68L689.99-17.68Q689.84-18.36 689.56-19.89 689.28-21.41 689.01-22.55 688.74-23.68 688.42-24.66L688.42-24.66 688.42-25.83Q688.23-26.34 687.74-26.56L687.74-26.56 687.74-26.51Q687.15-26.39 686.57-23.24L686.57-23.24 686.57-22.07Q686.52-21.9 686.35-21.75 686.18-21.61 686.18-21.58L686.18-21.58Q685.37-18.02 684.86-15.82L684.86-15.82Q684.86-15.58 684.74-14.97 684.62-14.36 684.62-14.26L684.62-14.26 690.67-14.26Q690.67-14.89 690.23-16.55L690.23-16.55 690.23-17.09Q690.21-17.16 690.1-17.37 689.99-17.58 689.99-17.68ZM720.4-0.98L708.69-0.98 708.17-17.24Q708.17-18.92 708.22-21.04 708.27-23.17 708.34-24.88 708.42-26.59 708.48-28.76 708.54-30.93 708.54-32.71L708.54-32.71Q708.54-33.2 708.87-33.34 709.2-33.47 709.7-33.42 710.2-33.37 710.83-33.5L710.83-33.5 728.31-33.5Q729.8-33.5 731.29-33.12 732.78-32.74 734.21-31.9 735.64-31.05 736.72-29.85 737.81-28.64 738.48-26.83 739.15-25.02 739.15-22.85L739.15-22.85Q739.15-19.97 737.93-17.74 736.71-15.5 734.27-13.53L734.27-13.53Q731.27-11.96 727.04-11.72L727.04-11.72 726.26-11.72Q725.29-11.52 724.31-11.52L724.31-11.52 722.36-11.52Q722.21-11.52 722.11-11.47L722.11-11.47Q722.11-5.08 722.31-1.81L722.31-1.81Q722.19-1.32 721.78-1.15 721.38-0.98 720.4-0.98L720.4-0.98ZM720.89-19.63L720.89-19.63 720.89-19.19Q720.92-19.17 721.22-19.03 721.53-18.9 721.53-18.85L721.53-18.85 721.53-18.8Q721.48-18.8 721.48-18.9L721.48-18.9Q721.53-18.85 721.77-18.85L721.77-18.85Q723.94-18.85 725.45-19.82 726.95-20.8 726.95-22.85L726.95-22.85Q726.95-23.78 726.63-24.44 726.31-25.1 725.86-25.45 725.41-25.81 724.64-25.99 723.87-26.17 723.24-26.22 722.6-26.27 721.62-26.27L721.62-26.27Q721.6-26.25 721.43-26.1 721.26-25.95 721.19-25.88L721.19-25.88 721.19-23.34Q720.89-21 720.89-19.63ZM739.2-24.71L739.2-24.71 739.2-33.5 767.62-33.5Q768.01-33.42 768.11-33.19 768.2-32.96 768.2-32.52L768.2-32.52 768.2-24.71Q768.16-24.12 767.52-24.12L767.52-24.12 760.59-24.12 760.59-1.66Q760.59-1.64 760.56-1.54 760.54-1.44 760.54-1.42 760.54-1.39 760.51-1.32 760.49-1.25 760.46-1.22 760.44-1.2 760.42-1.14 760.39-1.07 760.36-1.06 760.32-1.05 760.26-1.01 760.2-0.98 760.14-0.95 760.07-0.93 759.99-0.92 759.9-0.9 759.81-0.88L759.81-0.88 758.24-0.88Q755.12-0.88 755.12-1.07L755.12-1.07Q754.92-1.07 754.53-1.05 754.14-1.03 753.95-1.03L753.95-1.03 751.99-1.03Q751.43-1.03 750.39-1 749.36-0.98 748.77-0.98L748.77-0.98 747.4-0.98 746.43-1.66 746.43-6.93Q746.45-8.35 746.63-12.99 746.82-17.63 746.82-20.31L746.82-20.31 746.82-20.95Q746.82-21.14 746.84-21.56 746.87-21.97 746.87-22.17L746.87-22.17Q746.87-22.39 746.84-23.06 746.82-23.73 746.82-23.93L746.82-23.93 740.71-23.93Q740.18-23.93 739.69-24.11 739.2-24.29 739.2-24.71ZM770.06-27.93L770.06-27.88Q769.96-28.37 769.96-30.66L769.96-30.66Q769.96-33.3 770.45-33.79L770.45-33.79 783.73-33.79 783.73-13.28Q783.73-10.11 785.58-10.11L785.58-10.11Q786.37-10.11 786.88-10.8 787.39-11.5 787.39-12.45L787.39-12.45 787.39-16.06Q787.54-26.76 787.54-26.86L787.54-26.86Q787.54-31.1 787.44-33.01L787.44-33.01Q787.44-33.69 788.12-33.98L788.12-33.98 801.7-33.98 801.7-30.18Q801.38-20.92 801.31-18.26L801.31-18.26 801.31-16.75Q801.31-16.46 801.28-15.97 801.26-15.48 801.26-15.28L801.26-15.28Q801.26-14.45 801.31-14.11L801.31-14.11 801.31-12.21Q801.31-8.81 800.62-7.32L800.62-7.32 800.62-7.23Q799.84-5.4 798.38-4.06 796.91-2.73 795.03-1.99 793.15-1.25 791.18-0.92 789.2-0.59 787-0.59L787-0.59Q786.32-0.59 785.98-0.73L785.98-0.73 785.39-0.73Q785.39-0.49 784.66-0.49L784.66-0.49 784.66-0.44Q784.12-0.42 781.53-0.68L781.53-0.68 780.41-0.68Q778.87-0.85 777.44-1.37 776.01-1.88 774.67-2.82 773.33-3.76 772.32-5.05 771.3-6.35 770.67-8.2 770.03-10.06 769.96-12.26L769.96-12.26Q769.98-13.53 769.97-15.77 769.96-18.02 769.98-19.86 770.01-21.7 770.11-23.44L770.11-23.44 770.11-24.12Q770.11-24.24 770.13-24.51 770.15-24.78 770.15-24.9L770.15-24.9Q770.15-25.27 770.11-26 770.06-26.73 770.06-27.1L770.06-27.1 770.06-27.93ZM805.65-0.98L805.65-33.59 810.19-33.59Q812.29-33.59 816.91-33.69 821.52-33.79 823.81-33.79L823.81-33.79Q825.79-33.79 827.51-33.57 829.23-33.35 830.91-32.76 832.58-32.18 833.76-31.27 834.95-30.37 835.68-28.89 836.41-27.42 836.41-25.49L836.41-25.49Q836.41-22.83 835.17-20.95 833.92-19.07 831.33-17.77L831.33-17.77Q832.36-17.33 833.12-16.63 833.87-15.92 834.28-15.41 834.68-14.89 835.06-13.68 835.44-12.48 835.51-12.1 835.58-11.72 835.83-10.23L835.83-10.23Q835.9-9.89 835.92-9.72L835.92-9.72Q836.02-8.74 836.75-6.14 837.49-3.54 837.49-2.15L837.49-2.15Q837.49-1.27 836.95-1.27L836.95-1.27Q835.48-1.27 832.52-1.25 829.55-1.22 828.11-1.22L828.11-1.22Q827.53-1.27 826.35-1.27L826.35-1.27 824.69-1.27Q824.21-1.42 823.74-2.78 823.28-4.15 823.08-5.86L823.08-5.86 822.54-10.21Q822.4-10.74 822.31-10.97 822.23-11.21 822.01-11.54 821.79-11.87 821.41-11.99 821.03-12.11 820.45-12.11L820.45-12.11 819.32-12.11 819.32-2.34Q819.32-2.27 819.32-2.11 819.32-1.95 819.32-1.89 819.32-1.83 819.32-1.71 819.32-1.59 819.3-1.53 819.27-1.46 819.25-1.37 819.22-1.27 819.19-1.23 819.15-1.2 819.09-1.14 819.03-1.07 818.94-1.05 818.86-1.03 818.75-1 818.64-0.98 818.49-0.98L818.49-0.98 805.65-0.98ZM819.47-20.7L819.47-20.7Q819.52-20.65 819.62-20.5 819.71-20.34 819.81-20.24 819.91-20.14 820.01-20.12L820.01-20.12Q820.74-20.12 821.47-20.28 822.2-20.43 822.97-20.8 823.74-21.17 824.22-21.92 824.69-22.68 824.69-23.73L824.69-23.73Q824.69-26.27 819.81-26.27L819.81-26.27Q819.32-26.15 819.32-25.88L819.32-25.88 819.32-24.95Q819.32-24.24 819.4-22.83 819.47-21.41 819.47-20.7ZM839.68-1.81L839.68-31.54Q839.68-33.01 839.8-33.25L839.8-33.25Q840.02-33.59 840.51-33.59L840.51-33.59 841.1-33.59Q841.49-33.59 841.63-33.54L841.63-33.54 842.9-33.54Q845.37-33.54 850.36-33.67 855.35-33.79 857.85-33.79L857.85-33.79 864.34-33.79Q864.97-33.72 864.97-33.15L864.97-33.15 864.97-25Q864.95-24.85 864.89-24.74 864.83-24.63 864.79-24.6 864.75-24.56 864.56-24.43 864.36-24.29 864.29-24.22L864.29-24.22 852.96-24.22 852.96-21.19 854.04-21.19Q855.45-21.19 858.36-21.29 861.26-21.39 862.83-21.39L862.83-21.39Q863.51-21.39 863.75-21.12 864-20.85 864-20.36L864-20.36Q864-20.24 863.95-19.95 863.9-19.65 863.9-19.53L863.9-19.53 863.9-18.6Q863.9-18.51 863.92-18.2 863.95-17.9 863.95-17.68L863.95-17.68 863.95-16.99Q863.95-16.46 864-15.92 864.05-15.38 864.05-14.99L864.05-14.99 864.05-14.36Q863.92-14.06 863.85-13.96 863.78-13.87 863.61-13.87L863.61-13.87 863.61-13.92Q862.7-13.92 860.49-13.79 858.28-13.67 856.97-13.67L856.97-13.67 853.06-13.67 853.06-10.55Q853.26-10.55 853.65-10.52 854.04-10.5 854.23-10.5L854.23-10.5Q855.33-10.5 857.48-10.57 859.63-10.64 860.58-10.64L860.58-10.64 863.7-10.64Q864.97-10.64 865.32-10.35L865.32-10.35Q865.44-10.21 865.51-10.06L865.51-10.06 865.51-2.25Q865.51-1.73 865.32-1.46 865.12-1.2 864.58-1.17L864.58-1.17 840.41-1.17 839.68-1.81ZM880.84-24.71L880.84-24.71 880.84-33.5 909.26-33.5Q909.65-33.42 909.74-33.19 909.84-32.96 909.84-32.52L909.84-32.52 909.84-24.71Q909.79-24.12 909.16-24.12L909.16-24.12 902.22-24.12 902.22-1.66Q902.22-1.64 902.2-1.54 902.18-1.44 902.18-1.42 902.18-1.39 902.15-1.32 902.13-1.25 902.1-1.22 902.08-1.2 902.05-1.14 902.03-1.07 901.99-1.06 901.96-1.05 901.9-1.01 901.83-0.98 901.77-0.95 901.71-0.93 901.63-0.92 901.54-0.9 901.44-0.88L901.44-0.88 899.88-0.88Q896.76-0.88 896.76-1.07L896.76-1.07Q896.56-1.07 896.17-1.05 895.78-1.03 895.58-1.03L895.58-1.03 893.63-1.03Q893.07-1.03 892.03-1 890.99-0.98 890.41-0.98L890.41-0.98 889.04-0.98 888.06-1.66 888.06-6.93Q888.09-8.35 888.27-12.99 888.46-17.63 888.46-20.31L888.46-20.31 888.46-20.95Q888.46-21.14 888.48-21.56 888.5-21.97 888.5-22.17L888.5-22.17Q888.5-22.39 888.48-23.06 888.46-23.73 888.46-23.93L888.46-23.93 882.35-23.93Q881.81-23.93 881.33-24.11 880.84-24.29 880.84-24.71ZM943.34-32.57L943.34-32.57 943.34-2.54Q943.34-2.03 943.3-1.72 943.26-1.42 943.09-1.15 942.92-0.88 942.6-0.88L942.6-0.88 930.15-0.88 930.15-1.42Q930.1-1.46 929.77-1.64 929.44-1.81 929.37-1.95L929.37-1.95 929.37-11.82Q929.37-12.35 929.29-12.43 929.2-12.5 928.59-12.5L928.59-12.5 926.93-12.5Q926.34-12.5 925.56-12.4L925.56-12.4 925.56-1.86Q925.46-1.42 925.18-1.29 924.9-1.17 924.34-1.17L924.34-1.17 923.22-1.17Q922.07-1.17 919.62-1.12 917.16-1.07 915.89-1.07L915.89-1.07 912.67-1.07Q911.62-1.07 911.62-2.25L911.62-2.25 911.77-33.01Q911.77-33.13 911.84-33.22 911.91-33.3 912.13-33.46 912.35-33.62 912.38-33.64L912.38-33.64 925.51-33.64 925.51-23.14 929.76-23.14 929.76-33.89 942.21-33.89Q942.8-33.89 943.07-33.62 943.34-33.35 943.34-32.57ZM947.92-1.81L947.92-31.54Q947.92-33.01 948.05-33.25L948.05-33.25Q948.26-33.59 948.75-33.59L948.75-33.59 949.34-33.59Q949.73-33.59 949.88-33.54L949.88-33.54 951.15-33.54Q953.61-33.54 958.6-33.67 963.6-33.79 966.09-33.79L966.09-33.79 972.58-33.79Q973.22-33.72 973.22-33.15L973.22-33.15 973.22-25Q973.19-24.85 973.13-24.74 973.07-24.63 973.03-24.6 973-24.56 972.8-24.43 972.61-24.29 972.53-24.22L972.53-24.22 961.2-24.22 961.2-21.19 962.28-21.19Q963.69-21.19 966.6-21.29 969.51-21.39 971.07-21.39L971.07-21.39Q971.75-21.39 972-21.12 972.24-20.85 972.24-20.36L972.24-20.36Q972.24-20.24 972.19-19.95 972.14-19.65 972.14-19.53L972.14-19.53 972.14-18.6Q972.14-18.51 972.17-18.2 972.19-17.9 972.19-17.68L972.19-17.68 972.19-16.99Q972.19-16.46 972.24-15.92 972.29-15.38 972.29-14.99L972.29-14.99 972.29-14.36Q972.17-14.06 972.09-13.96 972.02-13.87 971.85-13.87L971.85-13.87 971.85-13.92Q970.95-13.92 968.74-13.79 966.53-13.67 965.21-13.67L965.21-13.67 961.3-13.67 961.3-10.55Q961.5-10.55 961.89-10.52 962.28-10.5 962.47-10.5L962.47-10.5Q963.57-10.5 965.72-10.57 967.87-10.64 968.82-10.64L968.82-10.64 971.95-10.64Q973.22-10.64 973.56-10.35L973.56-10.35Q973.68-10.21 973.75-10.06L973.75-10.06 973.75-2.25Q973.75-1.73 973.56-1.46 973.36-1.2 972.83-1.17L972.83-1.17 948.66-1.17 947.92-1.81ZM988.2 0L988.2 0Q989.71-5.59 991.55-11.35 993.38-17.11 996.1-25.13 998.82-33.15 999.82-36.23L999.82-36.23Q1000.12-36.72 1000.21-36.82L1000.21-36.82 1004.31-36.82Q1005.75-36.82 1008.56-36.87 1011.37-36.91 1012.81-36.91L1012.81-36.91 1016.91-36.91Q1017.28-36.91 1017.52-36.9 1017.77-36.89 1018.11-36.84 1018.45-36.79 1018.66-36.69 1018.87-36.6 1019.01-36.4 1019.16-36.21 1019.16-35.94L1019.16-35.94 1030.41-0.27Q1030.41 0.22 1030.06 0.4 1029.71 0.59 1028.73 0.59L1028.73 0.59 1026.48 0.59Q1025.51 0.59 1023.58 0.61 1021.65 0.63 1020.67 0.63L1020.67 0.63Q1020.38 0.63 1019.49 0.67 1018.6 0.71 1017.99 0.7 1017.38 0.68 1016.63 0.62 1015.89 0.56 1015.44 0.35 1014.98 0.15 1014.86-0.2L1014.86-0.2 1014.86-1.81Q1014.62-3.03 1014.01-4.05 1013.4-5.08 1012.71-5.08L1012.71-5.08 1004.31-5.08 1003.04 0.1Q1002.78 0.68 1000.31 0.68L1000.31 0.68 998.36 0.68Q997.31 0.68 995.23 0.76 993.16 0.83 992.11 0.83L992.11 0.83 991.42 0.83Q991.03 0.83 990.19 0.85 989.35 0.88 988.88 0.88L988.88 0.88Q988.69 0.68 988.2 0ZM1007.1-23.29L1005.14-14.82 1005.83-13.67 1007.44-13.67Q1009.39-13.67 1011.02-13.9 1012.64-14.14 1012.64-14.65L1012.64-14.65 1009.49-28.71Q1009.05-28.71 1008.31-27.05 1007.56-25.39 1007.1-23.29L1007.1-23.29ZM1038.78-33.89L1045.03-33.89Q1048.38-33.89 1051.05-33.45 1053.73-33.01 1056.18-31.88 1058.63-30.76 1060.27-28.96 1061.9-27.15 1062.87-24.27 1063.83-21.39 1063.83-17.58L1063.83-17.58Q1063.83-14.79 1063.17-12.39 1062.52-9.99 1061.37-8.25 1060.22-6.52 1058.74-5.16 1057.27-3.81 1055.53-2.95 1053.8-2.1 1052.07-1.64 1050.33-1.17 1048.6-1.07L1048.6-1.07 1031.85-1.07 1031.85-33.5Q1031.92-33.5 1032.12-33.47 1032.31-33.45 1032.39-33.45L1032.39-33.45Q1033.44-33.45 1035.57-33.67 1037.71-33.89 1038.78-33.89L1038.78-33.89ZM1044.16-8.69L1045.33-8.69Q1046.57-8.69 1047.52-9.09 1048.48-9.5 1049.05-10.25 1049.62-11.01 1050-11.84 1050.38-12.67 1050.55-13.79 1050.72-14.92 1050.78-15.76 1050.85-16.6 1050.85-17.68L1050.85-17.68 1050.85-19.43Q1050.82-19.6 1050.7-21.09 1050.58-22.58 1050.16-23.63L1050.16-23.63Q1049.77-24.39 1049.29-24.94 1048.82-25.49 1048.35-25.79 1047.89-26.1 1047.27-26.26 1046.65-26.42 1046.13-26.46 1045.62-26.51 1044.89-26.51L1044.89-26.51 1044.89-25.98 1044.16-25.98 1044.16-8.69ZM1083.97-18.8L1083.58-21.48Q1083.75-22.41 1084.52-25.04 1085.29-27.66 1085.44-29.2L1085.44-29.2 1085.44-30.91Q1085.44-30.96 1085.5-31.32 1085.56-31.69 1085.57-31.76 1085.58-31.84 1085.64-32.14 1085.71-32.45 1085.77-32.54 1085.83-32.64 1085.94-32.86 1086.05-33.08 1086.17-33.17 1086.29-33.25 1086.48-33.37 1086.66-33.5 1086.89-33.54 1087.12-33.59 1087.39-33.59L1087.39-33.59 1098.52-33.59Q1098.57-33.57 1098.82-33.4 1099.06-33.23 1099.22-33.11 1099.38-32.98 1099.4-32.91L1099.4-32.91 1091.22-3.49Q1090.96-2.47 1090.55-1.77 1090.15-1.07 1089.64-1.07L1089.64-1.07 1072.94-1.07Q1072.55-2.64 1072.03-4.76 1071.52-6.88 1071.01-9 1070.5-11.11 1070.11-12.7L1070.11-12.7 1064.17-32.86Q1064.17-33.42 1064.98-33.59L1064.98-33.59 1064.98-33.69Q1066.44-33.69 1069.41-33.74 1072.38-33.79 1073.72-33.79L1073.72-33.79 1077.72-33.79Q1077.89-33.79 1077.95-33.73 1078.02-33.67 1078.1-33.48 1078.19-33.3 1078.33-33.15L1078.33-33.15 1081.82-12.89 1083.97-18.8ZM1100.94-1.81L1100.94-31.54Q1100.94-33.01 1101.06-33.25L1101.06-33.25Q1101.28-33.59 1101.77-33.59L1101.77-33.59 1102.35-33.59Q1102.74-33.59 1102.89-33.54L1102.89-33.54 1104.16-33.54Q1106.63-33.54 1111.62-33.67 1116.61-33.79 1119.1-33.79L1119.1-33.79 1125.6-33.79Q1126.23-33.72 1126.23-33.15L1126.23-33.15 1126.23-25Q1126.21-24.85 1126.15-24.74 1126.08-24.63 1126.05-24.6 1126.01-24.56 1125.82-24.43 1125.62-24.29 1125.55-24.22L1125.55-24.22 1114.22-24.22 1114.22-21.19 1115.29-21.19Q1116.71-21.19 1119.61-21.29 1122.52-21.39 1124.08-21.39L1124.08-21.39Q1124.77-21.39 1125.01-21.12 1125.25-20.85 1125.25-20.36L1125.25-20.36Q1125.25-20.24 1125.21-19.95 1125.16-19.65 1125.16-19.53L1125.16-19.53 1125.16-18.6Q1125.16-18.51 1125.18-18.2 1125.21-17.9 1125.21-17.68L1125.21-17.68 1125.21-16.99Q1125.21-16.46 1125.25-15.92 1125.3-15.38 1125.3-14.99L1125.3-14.99 1125.3-14.36Q1125.18-14.06 1125.11-13.96 1125.03-13.87 1124.86-13.87L1124.86-13.87 1124.86-13.92Q1123.96-13.92 1121.75-13.79 1119.54-13.67 1118.22-13.67L1118.22-13.67 1114.32-13.67 1114.32-10.55Q1114.51-10.55 1114.9-10.52 1115.29-10.5 1115.49-10.5L1115.49-10.5Q1116.59-10.5 1118.74-10.57 1120.88-10.64 1121.84-10.64L1121.84-10.64 1124.96-10.64Q1126.23-10.64 1126.57-10.35L1126.57-10.35Q1126.69-10.21 1126.77-10.06L1126.77-10.06 1126.77-2.25Q1126.77-1.73 1126.57-1.46 1126.38-1.2 1125.84-1.17L1125.84-1.17 1101.67-1.17 1100.94-1.81ZM1153.57-33.59L1161.92-33.59Q1162.21-33.5 1162.37-32.75 1162.53-32.01 1162.56-30.88 1162.58-29.76 1162.56-28.74 1162.53-27.71 1162.5-26.64 1162.46-25.56 1162.46-25.29L1162.46-25.29Q1162.41-24.32 1162.41-22.56L1162.41-22.56 1162.41-19.97Q1162.41-18.26 1162.46-15.28 1162.51-12.3 1162.51-10.89L1162.51-10.89 1162.51-2Q1162.41-1.17 1161.14-1.17L1161.14-1.17 1147.47-1.17Q1147.03-1.27 1146.35-3.22L1146.35-3.22Q1145.88-4.52 1144.8-7.47 1143.71-10.42 1142.93-12.66 1142.15-14.89 1141.51-16.99L1141.51-16.99 1141.51-17.14 1141.51-16.99Q1141.44-15.38 1141.37-12.19 1141.29-9.01 1141.22-7.42L1141.22-7.42 1141.22-2.44Q1141.22-1.71 1141.05-1.43 1140.88-1.15 1140.14-0.98L1140.14-0.98 1130.09-0.98 1129.01-2.05Q1129.13-6.1 1129.21-14.75 1129.28-23.39 1129.4-27.54L1129.4-27.54 1129.4-32.81Q1129.65-33.69 1129.99-33.69L1129.99-33.69 1129.99-33.59Q1131.65-33.59 1135.2-33.69 1138.75-33.79 1140.53-33.79L1140.53-33.79 1144.64-33.79Q1144.66-33.79 1144.71-33.76L1144.71-33.76Q1145.15-33.59 1145.2-33.37L1145.2-33.37 1145.22-33.2Q1146.1-30.83 1147-28.3 1147.91-25.76 1149.15-22.16 1150.4-18.55 1150.89-17.19L1150.89-17.19 1150.89-20.8Q1151.37-29.39 1151.37-33.01L1151.37-33.01Q1151.37-33.4 1151.91-33.5 1152.45-33.59 1153.57-33.59L1153.57-33.59ZM1164.85-24.71L1164.85-24.71 1164.85-33.5 1193.27-33.5Q1193.66-33.42 1193.76-33.19 1193.85-32.96 1193.85-32.52L1193.85-32.52 1193.85-24.71Q1193.8-24.12 1193.17-24.12L1193.17-24.12 1186.24-24.12 1186.24-1.66Q1186.24-1.64 1186.21-1.54 1186.19-1.44 1186.19-1.42 1186.19-1.39 1186.16-1.32 1186.14-1.25 1186.11-1.22 1186.09-1.2 1186.06-1.14 1186.04-1.07 1186-1.06 1185.97-1.05 1185.91-1.01 1185.84-0.98 1185.78-0.95 1185.72-0.93 1185.64-0.92 1185.55-0.9 1185.45-0.88L1185.45-0.88 1183.89-0.88Q1180.77-0.88 1180.77-1.07L1180.77-1.07Q1180.57-1.07 1180.18-1.05 1179.79-1.03 1179.59-1.03L1179.59-1.03 1177.64-1.03Q1177.08-1.03 1176.04-1 1175.01-0.98 1174.42-0.98L1174.42-0.98 1173.05-0.98 1172.08-1.66 1172.08-6.93Q1172.1-8.35 1172.28-12.99 1172.47-17.63 1172.47-20.31L1172.47-20.31 1172.47-20.95Q1172.47-21.14 1172.49-21.56 1172.51-21.97 1172.51-22.17L1172.51-22.17Q1172.51-22.39 1172.49-23.06 1172.47-23.73 1172.47-23.93L1172.47-23.93 1166.36-23.93Q1165.83-23.93 1165.34-24.11 1164.85-24.29 1164.85-24.71ZM1195.71-27.93L1195.71-27.88Q1195.61-28.37 1195.61-30.66L1195.61-30.66Q1195.61-33.3 1196.1-33.79L1196.1-33.79 1209.38-33.79 1209.38-13.28Q1209.38-10.11 1211.23-10.11L1211.23-10.11Q1212.01-10.11 1212.53-10.8 1213.04-11.5 1213.04-12.45L1213.04-12.45 1213.04-16.06Q1213.19-26.76 1213.19-26.86L1213.19-26.86Q1213.19-31.1 1213.09-33.01L1213.09-33.01Q1213.09-33.69 1213.77-33.98L1213.77-33.98 1227.35-33.98 1227.35-30.18Q1227.03-20.92 1226.96-18.26L1226.96-18.26 1226.96-16.75Q1226.96-16.46 1226.93-15.97 1226.91-15.48 1226.91-15.28L1226.91-15.28Q1226.91-14.45 1226.96-14.11L1226.96-14.11 1226.96-12.21Q1226.96-8.81 1226.27-7.32L1226.27-7.32 1226.27-7.23Q1225.49-5.4 1224.03-4.06 1222.56-2.73 1220.68-1.99 1218.8-1.25 1216.82-0.92 1214.85-0.59 1212.65-0.59L1212.65-0.59Q1211.97-0.59 1211.62-0.73L1211.62-0.73 1211.04-0.73Q1211.04-0.49 1210.31-0.49L1210.31-0.49 1210.31-0.44Q1209.77-0.42 1207.18-0.68L1207.18-0.68 1206.06-0.68Q1204.52-0.85 1203.09-1.37 1201.66-1.88 1200.32-2.82 1198.98-3.76 1197.96-5.05 1196.95-6.35 1196.32-8.2 1195.68-10.06 1195.61-12.26L1195.61-12.26Q1195.63-13.53 1195.62-15.77 1195.61-18.02 1195.63-19.86 1195.66-21.7 1195.75-23.44L1195.75-23.44 1195.75-24.12Q1195.75-24.24 1195.78-24.51 1195.8-24.78 1195.8-24.9L1195.8-24.9Q1195.8-25.27 1195.75-26 1195.71-26.73 1195.71-27.1L1195.71-27.1 1195.71-27.93ZM1231.3-0.98L1231.3-33.59 1235.84-33.59Q1237.94-33.59 1242.55-33.69 1247.17-33.79 1249.46-33.79L1249.46-33.79Q1251.44-33.79 1253.16-33.57 1254.88-33.35 1256.56-32.76 1258.23-32.18 1259.41-31.27 1260.6-30.37 1261.33-28.89 1262.06-27.42 1262.06-25.49L1262.06-25.49Q1262.06-22.83 1260.82-20.95 1259.57-19.07 1256.98-17.77L1256.98-17.77Q1258.01-17.33 1258.76-16.63 1259.52-15.92 1259.92-15.41 1260.33-14.89 1260.71-13.68 1261.08-12.48 1261.16-12.1 1261.23-11.72 1261.47-10.23L1261.47-10.23Q1261.55-9.89 1261.57-9.72L1261.57-9.72Q1261.67-8.74 1262.4-6.14 1263.13-3.54 1263.13-2.15L1263.13-2.15Q1263.13-1.27 1262.6-1.27L1262.6-1.27Q1261.13-1.27 1258.17-1.25 1255.2-1.22 1253.76-1.22L1253.76-1.22Q1253.17-1.27 1252-1.27L1252-1.27 1250.34-1.27Q1249.85-1.42 1249.39-2.78 1248.93-4.15 1248.73-5.86L1248.73-5.86 1248.19-10.21Q1248.05-10.74 1247.96-10.97 1247.88-11.21 1247.66-11.54 1247.44-11.87 1247.06-11.99 1246.68-12.11 1246.09-12.11L1246.09-12.11 1244.97-12.11 1244.97-2.34Q1244.97-2.27 1244.97-2.11 1244.97-1.95 1244.97-1.89 1244.97-1.83 1244.97-1.71 1244.97-1.59 1244.95-1.53 1244.92-1.46 1244.9-1.37 1244.87-1.27 1244.84-1.23 1244.8-1.2 1244.74-1.14 1244.68-1.07 1244.59-1.05 1244.51-1.03 1244.4-1 1244.29-0.98 1244.14-0.98L1244.14-0.98 1231.3-0.98ZM1245.12-20.7L1245.12-20.7Q1245.17-20.65 1245.26-20.5 1245.36-20.34 1245.46-20.24 1245.56-20.14 1245.65-20.12L1245.65-20.12Q1246.39-20.12 1247.12-20.28 1247.85-20.43 1248.62-20.8 1249.39-21.17 1249.87-21.92 1250.34-22.68 1250.34-23.73L1250.34-23.73Q1250.34-26.27 1245.46-26.27L1245.46-26.27Q1244.97-26.15 1244.97-25.88L1244.97-25.88 1244.97-24.95Q1244.97-24.24 1245.04-22.83 1245.12-21.41 1245.12-20.7ZM1265.33-1.81L1265.33-31.54Q1265.33-33.01 1265.45-33.25L1265.45-33.25Q1265.67-33.59 1266.16-33.59L1266.16-33.59 1266.75-33.59Q1267.14-33.59 1267.28-33.54L1267.28-33.54 1268.55-33.54Q1271.02-33.54 1276.01-33.67 1281-33.79 1283.49-33.79L1283.49-33.79 1289.99-33.79Q1290.62-33.72 1290.62-33.15L1290.62-33.15 1290.62-25Q1290.6-24.85 1290.54-24.74 1290.48-24.63 1290.44-24.6 1290.4-24.56 1290.21-24.43 1290.01-24.29 1289.94-24.22L1289.94-24.22 1278.61-24.22 1278.61-21.19 1279.69-21.19Q1281.1-21.19 1284.01-21.29 1286.91-21.39 1288.47-21.39L1288.47-21.39Q1289.16-21.39 1289.4-21.12 1289.65-20.85 1289.65-20.36L1289.65-20.36Q1289.65-20.24 1289.6-19.95 1289.55-19.65 1289.55-19.53L1289.55-19.53 1289.55-18.6Q1289.55-18.51 1289.57-18.2 1289.6-17.9 1289.6-17.68L1289.6-17.68 1289.6-16.99Q1289.6-16.46 1289.65-15.92 1289.69-15.38 1289.69-14.99L1289.69-14.99 1289.69-14.36Q1289.57-14.06 1289.5-13.96 1289.43-13.87 1289.26-13.87L1289.26-13.87 1289.26-13.92Q1288.35-13.92 1286.14-13.79 1283.93-13.67 1282.61-13.67L1282.61-13.67 1278.71-13.67 1278.71-10.55Q1278.9-10.55 1279.29-10.52 1279.69-10.5 1279.88-10.5L1279.88-10.5Q1280.98-10.5 1283.13-10.57 1285.28-10.64 1286.23-10.64L1286.23-10.64 1289.35-10.64Q1290.62-10.64 1290.96-10.35L1290.96-10.35Q1291.09-10.21 1291.16-10.06L1291.16-10.06 1291.16-2.25Q1291.16-1.73 1290.96-1.46 1290.77-1.2 1290.23-1.17L1290.23-1.17 1266.06-1.17 1265.33-1.81Z" opacity="1" transform="matrix(1,0,0,1,0,0)" fill="#0080ff" class="undefined-text-1" data-fill-palette-color="secondary" id="text-1"></path></svg></g></svg></g></svg></g></svg></g><g transform="matrix(1,0,0,1,138.74859099417938,0)"><svg viewBox="0 0 120.00041801164119 96.9688105992384" height="96.9688105992384" width="120.00041801164119"><g><svg xmlns="http://www.w3.org/2000/svg" xmlns:xlink="http://www.w3.org/1999/xlink" version="1.1" x="0" y="0" viewBox="22.434999465942383 22.368000030517578 67.66858673095703 54.68099594116211" enable-background="new 0 0 100 100" xml:space="preserve" height="96.9688105992384" width="120.00041801164119" class="icon-icon-0" data-fill-palette-color="accent" id="icon-0"><path d="M88.811 58.896c-0.435-0.526-1.961-2.277-2.431-2.837-1.146-0.967-1.849-1.896-2.96-2.876-1.203-1.061-1.238-1.45-2.035-2.312-0.381-0.386-0.909-0.922-1.561-1.611L63.691 32.802c-1.651-0.963-2.593-0.833-4.416-0.466 0.039-0.008 1.145-0.27-1.036-3.918-1.118-1.854-3.939-4.187-6.739-6.05-6.011 9.781 0.933 15.174 0.975 13.273l0.486-8.182c1.727 0.597 2.886 2.713 2.84 4.479-0.027 1.082-0.314 2.225-0.911 3.141-0.254 0.629-0.597 1.229-0.978 1.783-0.143 0.205-0.289 0.411-0.445 0.611-1.355 2.472-2.936 5.55-2.68 6.321 0.32 0.969 9.588-9.607 11.588-7.769l11.812 11.948L61.141 50.67c-6.354 1.731-3.748 10.613-1.849 13.815l5.767 0.433c-1.983-4.955-3.199-9.062-1.703-11.303 0.926-1.386 6.897-2.189 10.429-2.736 0.08 0.009 0.16 0.015 0.239 0.018 0.399 0.019 2.135-0.633 2.274 0.232 0.114 0.707-0.14 1.376-1.346 1.652l-6.271 1.941c-3.485 0.809-1.704 6.477-0.389 10.231l3.515 0.435c0.384 0.263-1.005-3.35-1.668-5.941-0.623-2.428 1.209-3.062 4.829-3.636 1.096-0.172 2.992-0.329 3.867-0.656 3.657-1.074 3.494 1.646 0.115 2.461-0.341 0.079-2.01 0.549-2.416 0.638-4.148 0.914-2.494 4.42-1.438 6.73 0.353 0.768 0.86 1.307 1.288 1.567 0.016 0.011 0.031 0.021 0.05 0.029 0.008 0.005 0.015 0.008 0.023 0.013l5.124 1.501c0.457 0.153 1.045 0.144 1.855-0.031 2.619-0.567 4.291-2.024 5.295-3.32C90.146 62.921 90.901 61.421 88.811 58.896z" fill="#0080ff" data-fill-palette-color="accent"></path><path d="M66.186 47.565c1.503-0.272 2.573-1.316 2.301-2.82s-1.648-2.147-3.152-1.875c-1.503 0.272-2.566 1.358-2.294 2.862C63.312 47.236 64.682 47.838 66.186 47.565z" fill="#0080ff" data-fill-palette-color="accent"></path><path d="M57.302 46.934c2.685-3.174 3.096-3.326 5.325-6.314 1.628-2.183 0.23-2.881-1.62-1.599-2.23 1.545-8.886 6.602-11.607 13.589l-2.513-24.652c-2.794 2.795-4.74 2.096-6.836 4.192l9.78 34.419-13.972-30.04c-1.546 1.209-3.549 4.766-5.04 6.1l21.303 34.42 3.894-12.562C49.461 54.084 57.18 47.078 57.302 46.934z" fill="#0080ff" data-fill-palette-color="accent"></path><path d="M22.435 52.222l25.032 24.687h0.949C41.1 67.151 35.187 56.901 27.325 46.82L22.435 52.222z" fill="#0080ff" data-fill-palette-color="accent"></path></svg></g></svg></g><g></g></svg></g><defs></defs></svg><rect width="395.52" height="204.67306229538804" fill="none" stroke="none" visibility="hidden"></rect></g></svg></g></svg>